# xmcd
#
# Track frame offsets:
#	150
#	13650
#	29867
#	45233
#	63571
#	75795
#	89303
#	102819
#	121483
#	135699
#
# Disc length: 2057 seconds
#
# Revision: 1
# Processed by: cddbd v1.5.2PL0 Copyright (c) Steve Scherf et al.
# Submitted via: EZCDAudioConverter 5.0.5.1
#
DISCID=7808070a
DTITLE=Sunny Sweeney - Concrete
DYEAR=2011
DGENRE=Country
TTITLE0=Drink Myself Single
TTITLE1=From a Table Away
TTITLE2=Staying’s Worse Than Leaving
TTITLE3=The Old Me
TTITLE4=Amy
TTITLE5=Worn Out Heart
TTITLE6=Mean as You
TTITLE7=It Wrecks Me
TTITLE8=Helluva Heart
TTITLE9=Fall for Me
EXTD=
EXTT0=
EXTT1=
EXTT2=
EXTT3=
EXTT4=
EXTT5=
EXTT6=
EXTT7=
EXTT8=
EXTT9=
PLAYORDER=
